<svg width="233" height="122" viewBox="0 0 233 122" fill="none" xmlns="http://www.w3.org/2000/svg">
<path d="M66.9131 21.1794C64.9846 21.0601 63.0185 21.0099 61.0176 21.0361C44.3289 21.2546 30.1321 27.3764 20.3391 36.1112C10.6576 44.7464 4.83384 56.4145 6.1968 67.6992C6.43266 69.6519 6.85233 71.5122 7.44414 73.2899L7.09137 76.1122C6.64916 79.65 7.9808 83.8963 10.2198 87.8587C12.1961 91.3562 15.1246 95.0818 19.104 98.6307L18.1289 106.076L17.1761 113.352L24.2959 111.577L35.3615 108.819C44.4003 112.728 55.8166 115.417 69.9441 115.755C70.9548 116.031 72.0188 116.179 73.1173 116.179H146.117C149.839 116.179 153.166 114.484 155.367 111.824C157.568 114.484 160.895 116.179 164.617 116.179H176.617C183.244 116.179 188.617 110.806 188.617 104.179C188.617 101.993 188.033 99.9444 187.012 98.1794H196.117C202.744 98.1794 208.117 92.8068 208.117 86.1794C208.117 83.5361 207.262 81.0924 205.814 79.1095C206.242 79.1557 206.677 79.1794 207.117 79.1794H215.117C221.744 79.1794 227.117 73.8068 227.117 67.1794C227.117 60.552 221.744 55.1794 215.117 55.1794H207.117C203.251 55.1794 199.812 57.0078 197.617 59.847C196.213 58.0308 194.3 56.6282 192.091 55.8533C193.371 53.945 194.117 51.6494 194.117 49.1794C194.117 42.552 188.744 37.1794 182.117 37.1794H176.925C176.527 36.5944 176.071 36.0873 175.606 35.6634C173.682 33.9078 170.918 32.859 168.081 32.2402C168.028 31.5628 167.92 30.9012 167.759 30.2601C170.68 28.1428 173.371 25.8248 175.389 23.3285C178.02 20.0745 180.124 15.7048 178.799 10.7866C178.075 8.09906 176.108 6.47805 174.067 5.70618C172.238 5.01407 170.247 4.9346 168.52 5.03614C165.009 5.24257 160.669 6.33917 156.166 7.79632C147.037 10.7506 135.749 15.6912 125.871 20.3518C125.305 20.6189 124.74 20.9073 124.175 21.2158C120.394 21.5094 117.104 23.5559 115.117 26.5438C112.967 23.3104 109.291 21.1794 105.117 21.1794H66.9131ZM72.3795 115.79C72.6182 115.791 72.8642 115.791 73.1173 115.79C74.0631 115.785 75.109 115.758 76.2483 115.691C77.2595 115.945 78.3006 116.044 79.206 116.085C80.4735 116.143 81.8869 116.101 83.3595 115.989C86.3097 115.766 89.7753 115.239 93.2998 114.475C96.928 113.687 100.895 112.589 104.553 111.179H146.117C149.254 111.179 151.909 109.115 152.799 106.272L72.3795 115.79Z" fill="#FAFAFA" stroke="#FAFAFA" stroke-width="10"/>
<path d="M157.617 104.179C157.617 100.313 160.751 97.1794 164.617 97.1794H176.617C180.483 97.1794 183.617 100.313 183.617 104.179C183.617 108.045 180.483 111.179 176.617 111.179H164.617C160.751 111.179 157.617 108.045 157.617 104.179Z" fill="#59CEE9"/>
<path d="M200.117 67.1794C200.117 63.3134 203.251 60.1794 207.117 60.1794H215.117C218.983 60.1794 222.117 63.3134 222.117 67.1794C222.117 71.0454 218.983 74.1794 215.117 74.1794H207.117C203.251 74.1794 200.117 71.0454 200.117 67.1794Z" fill="#59CEE9"/>
<path d="M118.117 33.1794C118.117 29.3134 121.251 26.1794 125.117 26.1794H156.117C159.983 26.1794 163.117 29.3134 163.117 33.1794C163.117 37.0454 159.983 40.1794 156.117 40.1794H125.117C121.251 40.1794 118.117 37.0454 118.117 33.1794Z" fill="#59CEE9"/>
<path d="M156.052 79.2323H114.052C110.186 79.2323 107.052 82.3663 107.052 86.2323C107.052 90.0983 110.186 93.2323 114.052 93.2323H156.052C159.918 93.2323 163.052 90.0983 163.052 86.2323C163.052 82.3663 159.918 79.2323 156.052 79.2323Z" fill="#59CEE9"/>
<path d="M105.117 26.1794H63.1173C59.2513 26.1794 56.1173 29.3134 56.1173 33.1794C56.1173 37.0454 59.2513 40.1794 63.1173 40.1794H105.117C108.983 40.1794 112.117 37.0454 112.117 33.1794C112.117 29.3134 108.983 26.1794 105.117 26.1794Z" fill="#59CEE9"/>
<path d="M188.117 60.1794H114.117C110.251 60.1794 107.117 63.3134 107.117 67.1794C107.117 71.0454 110.251 74.1794 114.117 74.1794H188.117C191.983 74.1794 195.117 71.0454 195.117 67.1794C195.117 63.3134 191.983 60.1794 188.117 60.1794Z" fill="#59CEE9"/>
<path d="M79.1173 49.1794C79.1173 45.3134 82.2513 42.1794 86.1173 42.1794H146.117C149.983 42.1794 153.117 45.3134 153.117 49.1794C153.117 53.0454 149.983 56.1794 146.117 56.1794H86.1173C82.2513 56.1794 79.1173 53.0454 79.1173 49.1794Z" fill="#59CEE9"/>
<path d="M196.117 79.1794H174.117C170.251 79.1794 167.117 82.3134 167.117 86.1794C167.117 90.0454 170.251 93.1794 174.117 93.1794H196.117C199.983 93.1794 203.117 90.0454 203.117 86.1794C203.117 82.3134 199.983 79.1794 196.117 79.1794Z" fill="#59CEE9"/>
<path d="M182.117 42.1794H164.117C160.251 42.1794 157.117 45.3134 157.117 49.1794C157.117 53.0454 160.251 56.1794 164.117 56.1794H182.117C185.983 56.1794 189.117 53.0454 189.117 49.1794C189.117 45.3134 185.983 42.1794 182.117 42.1794Z" fill="#59CEE9"/>
<path d="M146.117 97.1794H73.1173C69.2513 97.1794 66.1173 100.313 66.1173 104.179C66.1173 108.045 69.2513 111.179 73.1173 111.179H146.117C149.983 111.179 153.117 108.045 153.117 104.179C153.117 100.313 149.983 97.1794 146.117 97.1794Z" fill="#59CEE9"/>
<path d="M87.8901 73.4913C94.7048 60.3793 112.268 32.2989 128.005 24.8738C147.676 15.5924 172.214 5.5633 173.971 12.087C176.875 22.8687 151.664 34.1156 138.225 40.987C156.608 32.5491 179.193 37.1083 171.748 43.8149C163.592 51.1628 123.454 66.7725 105.186 71.8544C98.3479 75.4724 83.4295 81.3895 87.8901 73.4913Z" fill="#DDF9FF"/>
<path d="M65.5527 91.2323C90.3505 90.9077 105.21 44.5067 113.329 52.7002C120.886 64.2323 115.887 92.7469 112.052 95.7323C94.0311 109.761 79.4298 110.834 72.4067 110.79C26.2677 110.577 11.0528 84.7323 12.0528 76.7323C12.0528 76.7323 34.5553 91.6381 65.5527 91.2323Z" fill="#52ABBD" stroke="#52ABBD"/>
<path d="M61.083 26.0357C85.8809 25.7111 102.499 39.0092 110.052 47.6794C126.728 66.8218 120.466 94.922 110.052 102.732C102.052 108.732 81.5519 112.354 77.0514 110.717C35.5263 95.6191 13.3757 85.4389 11.1607 67.0996C8.94574 48.7602 30.0856 26.4415 61.083 26.0357Z" fill="#B0ECFA"/>
<path d="M23.0867 106.726L24.8002 93.6417L40.3707 102.418L23.0867 106.726Z" fill="#52ABBD" stroke="#52ABBD"/>
<path d="M55.2638 75.1005C51.0724 80.2114 40.4142 80.1001 31.458 74.8519C22.5018 69.6037 18.6391 61.206 22.8305 56.0951C27.0219 50.9842 38.9885 49.5 47.9447 54.7482C56.9009 59.9963 59.4551 69.9896 55.2638 75.1005Z" fill="#52ABBD"/>
<path d="M55.2638 75.1005C51.0724 80.2114 40.4142 80.1001 31.458 74.8519C22.5018 69.6037 18.6391 61.206 22.8305 56.0951C27.0219 50.9842 38.9885 49.5 47.9447 54.7482C56.9009 59.9963 59.4551 69.9896 55.2638 75.1005Z" fill="#52ABBD"/>
<path d="M53.0642 73.8792C49.4716 78.26 40.2669 78.124 32.5048 73.5756C24.7428 69.0272 21.3628 61.7886 24.9554 57.4079C28.548 53.0271 38.8743 51.7954 46.6363 56.3438C54.3983 60.8923 56.6568 69.4984 53.0642 73.8792Z" fill="#EAFAFF"/>
<path d="M53.0642 73.8792C49.4716 78.26 40.2669 78.124 32.5048 73.5756C24.7428 69.0272 21.3628 61.7886 24.9554 57.4079C28.548 53.0271 38.8743 51.7954 46.6363 56.3438C54.3983 60.8923 56.6568 69.4984 53.0642 73.8792Z" fill="#EAFAFF"/>
<path d="M22.0969 59.9175L55.7185 70.6425" stroke="#52ABBD" stroke-width="2"/>
</svg>
